<?xml version="1.0" encoding="UTF-8"?>
<svg xmlns="http://www.w3.org/2000/svg" xmlns:xlink="http://www.w3.org/1999/xlink" width="375pt" height="374.999991pt" viewBox="0 0 375 374.999991" version="1.2">
<defs>
<clipPath id="clip1">
  <path d="M 61.691406 31.214844 L 312.941406 31.214844 L 312.941406 343.964844 L 61.691406 343.964844 Z M 61.691406 31.214844 "/>
</clipPath>
<clipPath id="clip2">
  <path d="M 208.152344 49.667969 L 269.601562 49.667969 L 269.601562 113.417969 L 208.152344 113.417969 Z M 208.152344 49.667969 "/>
</clipPath>
</defs>
<g id="surface1">
<g clip-path="url(#clip1)" clip-rule="nonzero">
<path style=" stroke:none;fill-rule:nonzero;fill:rgb(0%,0%,0%);fill-opacity:1;" d="M 309.75 341.089844 L 94.121094 341.089844 L 94.121094 322.328125 L 293.445312 322.328125 L 293.445312 58.734375 L 309.75 58.734375 Z M 89.121094 53.242188 L 86.785156 53.242188 C 87.429688 52.722656 88.234375 52.398438 89.121094 52.398438 C 91.191406 52.398438 92.875 54.085938 92.875 56.15625 C 92.875 58.230469 91.191406 59.917969 89.121094 59.917969 C 88.234375 59.917969 87.429688 59.589844 86.785156 59.070312 L 89.121094 59.070312 C 90.730469 59.070312 92.03125 57.765625 92.03125 56.15625 C 92.03125 54.546875 90.730469 53.242188 89.121094 53.242188 Z M 89.121094 73.363281 L 86.785156 73.363281 C 87.429688 72.84375 88.234375 72.519531 89.121094 72.519531 C 91.191406 72.519531 92.875 74.203125 92.875 76.277344 C 92.875 78.351562 91.191406 80.035156 89.121094 80.035156 C 88.234375 80.035156 87.429688 79.710938 86.785156 79.1875 L 89.121094 79.1875 C 90.730469 79.1875 92.03125 77.886719 92.03125 76.277344 C 92.03125 74.667969 90.730469 73.363281 89.121094 73.363281 Z M 89.121094 93.484375 L 86.785156 93.484375 C 87.429688 92.960938 88.234375 92.636719 89.121094 92.636719 C 91.191406 92.636719 92.875 94.324219 92.875 96.398438 C 92.875 98.46875 91.191406 100.15625 89.121094 100.15625 C 88.234375 100.15625 87.429688 99.832031 86.785156 99.308594 L 89.121094 99.308594 C 90.730469 99.308594 92.03125 98.003906 92.03125 96.398438 C 92.03125 94.785156 90.730469 93.484375 89.121094 93.484375 Z M 89.121094 113.601562 L 86.785156 113.601562 C 87.429688 113.082031 88.234375 112.753906 89.121094 112.753906 C 91.191406 112.753906 92.875 114.441406 92.875 116.515625 C 92.875 118.589844 91.191406 120.273438 89.121094 120.273438 C 88.234375 120.273438 87.429688 119.949219 86.785156 119.425781 L 89.121094 119.425781 C 90.730469 119.425781 92.03125 118.125 92.03125 116.515625 C 92.03125 114.90625 90.730469 113.601562 89.121094 113.601562 Z M 89.121094 133.722656 L 86.785156 133.722656 C 87.429688 133.199219 88.234375 132.875 89.121094 132.875 C 91.191406 132.875 92.875 134.558594 92.875 136.632812 C 92.875 138.707031 91.191406 140.394531 89.121094 140.394531 C 88.234375 140.394531 87.429688 140.070312 86.785156 139.546875 L 89.121094 139.546875 C 90.730469 139.546875 92.03125 138.242188 92.03125 136.632812 C 92.03125 135.023438 90.730469 133.722656 89.121094 133.722656 Z M 89.121094 153.839844 L 86.785156 153.839844 C 87.429688 153.316406 88.234375 152.992188 89.121094 152.992188 C 91.191406 152.992188 92.875 154.679688 92.875 156.753906 C 92.875 158.828125 91.191406 160.511719 89.121094 160.511719 C 88.234375 160.511719 87.429688 160.1875 86.785156 159.664062 L 89.121094 159.664062 C 90.730469 159.664062 92.03125 158.363281 92.03125 156.753906 C 92.03125 155.144531 90.730469 153.839844 89.121094 153.839844 Z M 89.121094 173.960938 L 86.785156 173.960938 C 87.429688 173.4375 88.234375 173.113281 89.121094 173.113281 C 91.191406 173.113281 92.875 174.796875 92.875 176.871094 C 92.875 178.945312 91.191406 180.632812 89.121094 180.632812 C 88.234375 180.632812 87.429688 180.304688 86.785156 179.785156 L 89.121094 179.785156 C 90.730469 179.785156 92.03125 178.480469 92.03125 176.871094 C 92.03125 175.261719 90.730469 173.960938 89.121094 173.960938 Z M 89.121094 194.078125 L 86.785156 194.078125 C 87.429688 193.558594 88.234375 193.230469 89.121094 193.230469 C 91.191406 193.230469 92.875 194.917969 92.875 196.992188 C 92.875 199.0625 91.191406 200.75 89.121094 200.75 C 88.234375 200.75 87.429688 200.425781 86.785156 199.90625 L 89.121094 199.90625 C 90.730469 199.90625 92.03125 198.601562 92.03125 196.992188 C 92.03125 195.382812 90.730469 194.078125 89.121094 194.078125 Z M 89.121094 214.199219 L 86.785156 214.199219 C 87.429688 213.675781 88.234375 213.351562 89.121094 213.351562 C 91.191406 213.351562 92.875 215.035156 92.875 217.109375 C 92.875 219.183594 91.191406 220.867188 89.121094 220.867188 C 88.234375 220.867188 87.429688 220.542969 86.785156 220.023438 L 89.121094 220.023438 C 90.730469 220.023438 92.03125 218.722656 92.03125 217.109375 C 92.03125 215.503906 90.730469 214.199219 89.121094 214.199219 Z M 89.121094 234.316406 L 86.785156 234.316406 C 87.429688 233.796875 88.234375 233.46875 89.121094 233.46875 C 91.191406 233.46875 92.875 235.15625 92.875 237.230469 C 92.875 239.300781 91.191406 240.988281 89.121094 240.988281 C 88.234375 240.988281 87.429688 240.664062 86.785156 240.144531 L 89.121094 240.144531 C 90.730469 240.144531 92.03125 238.839844 92.03125 237.230469 C 92.03125 235.621094 90.730469 234.316406 89.121094 234.316406 Z M 89.121094 254.433594 L 86.785156 254.433594 C 87.429688 253.914062 88.234375 253.589844 89.121094 253.589844 C 91.191406 253.589844 92.875 255.277344 92.875 257.347656 C 92.875 259.421875 91.191406 261.105469 89.121094 261.105469 C 88.234375 261.105469 87.429688 260.78125 86.785156 260.261719 L 89.121094 260.261719 C 90.730469 260.261719 92.03125 258.960938 92.03125 257.347656 C 92.03125 255.742188 90.730469 254.433594 89.121094 254.433594 Z M 89.121094 274.554688 L 86.785156 274.554688 C 87.429688 274.035156 88.234375 273.710938 89.121094 273.710938 C 91.191406 273.710938 92.875 275.394531 92.875 277.46875 C 92.875 279.539062 91.191406 281.226562 89.121094 281.226562 C 88.234375 281.226562 87.429688 280.902344 86.785156 280.382812 L 89.121094 280.382812 C 90.730469 280.382812 92.03125 279.078125 92.03125 277.46875 C 92.03125 275.859375 90.730469 274.554688 89.121094 274.554688 Z M 89.121094 294.671875 L 86.785156 294.671875 C 87.429688 294.152344 88.234375 293.828125 89.121094 293.828125 C 91.191406 293.828125 92.875 295.515625 92.875 297.585938 C 92.875 299.660156 91.191406 301.34375 89.121094 301.34375 C 88.234375 301.34375 87.429688 301.019531 86.785156 300.5 L 89.121094 300.5 C 90.730469 300.5 92.03125 299.195312 92.03125 297.585938 C 92.03125 295.980469 90.730469 294.671875 89.121094 294.671875 Z M 74.910156 300.5 L 83.144531 300.5 C 84.226562 302.722656 86.496094 304.257812 89.121094 304.257812 C 92.792969 304.257812 95.78125 301.265625 95.78125 297.585938 C 95.78125 293.90625 92.792969 290.914062 89.121094 290.914062 C 86.496094 290.914062 84.226562 292.453125 83.144531 294.671875 L 74.910156 294.671875 L 74.910156 280.382812 L 83.144531 280.382812 C 84.226562 282.601562 86.496094 284.140625 89.121094 284.140625 C 92.792969 284.140625 95.78125 281.148438 95.78125 277.46875 C 95.78125 273.789062 92.792969 270.796875 89.121094 270.796875 C 86.496094 270.796875 84.226562 272.332031 83.144531 274.554688 L 74.910156 274.554688 L 74.910156 260.261719 L 83.144531 260.261719 C 84.226562 262.484375 86.496094 264.019531 89.121094 264.019531 C 92.792969 264.019531 95.78125 261.027344 95.78125 257.347656 C 95.78125 253.671875 92.792969 250.675781 89.121094 250.675781 C 86.496094 250.675781 84.226562 252.214844 83.144531 254.433594 L 74.910156 254.433594 L 74.910156 240.144531 L 83.144531 240.144531 C 84.226562 242.363281 86.496094 243.902344 89.121094 243.902344 C 92.792969 243.902344 95.78125 240.910156 95.78125 237.230469 C 95.78125 233.550781 92.792969 230.554688 89.121094 230.554688 C 86.496094 230.554688 84.226562 232.097656 83.144531 234.316406 L 74.910156 234.316406 L 74.910156 220.023438 L 83.144531 220.023438 C 84.226562 222.246094 86.496094 223.78125 89.121094 223.78125 C 92.792969 223.78125 95.78125 220.789062 95.78125 217.109375 C 95.78125 213.433594 92.792969 210.4375 89.121094 210.4375 C 86.496094 210.4375 84.226562 211.976562 83.144531 214.199219 L 74.910156 214.199219 L 74.910156 199.90625 L 83.144531 199.90625 C 84.226562 202.125 86.496094 203.664062 89.121094 203.664062 C 92.792969 203.664062 95.78125 200.671875 95.78125 196.992188 C 95.78125 193.3125 92.792969 190.320312 89.121094 190.320312 C 86.496094 190.320312 84.226562 191.859375 83.144531 194.078125 L 74.910156 194.078125 L 74.910156 179.785156 L 83.144531 179.785156 C 84.226562 182.007812 86.496094 183.542969 89.121094 183.542969 C 92.792969 183.542969 95.78125 180.550781 95.78125 176.871094 C 95.78125 173.195312 92.792969 170.199219 89.121094 170.199219 C 86.496094 170.199219 84.226562 171.738281 83.144531 173.960938 L 74.910156 173.960938 L 74.910156 159.664062 L 83.144531 159.664062 C 84.226562 161.886719 86.496094 163.425781 89.121094 163.425781 C 92.792969 163.425781 95.78125 160.429688 95.78125 156.753906 C 95.78125 153.074219 92.792969 150.082031 89.121094 150.082031 C 86.496094 150.082031 84.226562 151.621094 83.144531 153.839844 L 74.910156 153.839844 L 74.910156 139.546875 L 83.144531 139.546875 C 84.226562 141.765625 86.496094 143.304688 89.121094 143.304688 C 92.792969 143.304688 95.78125 140.3125 95.78125 136.632812 C 95.78125 132.957031 92.792969 129.960938 89.121094 129.960938 C 86.496094 129.960938 84.226562 131.5 83.144531 133.722656 L 74.910156 133.722656 L 74.910156 119.425781 L 83.144531 119.425781 C 84.226562 121.648438 86.496094 123.1875 89.121094 123.1875 C 92.792969 123.1875 95.78125 120.191406 95.78125 116.515625 C 95.78125 112.835938 92.792969 109.84375 89.121094 109.84375 C 86.496094 109.84375 84.226562 111.382812 83.144531 113.601562 L 74.910156 113.601562 L 74.910156 99.308594 L 83.144531 99.308594 C 84.226562 101.527344 86.496094 103.066406 89.121094 103.066406 C 92.792969 103.066406 95.78125 100.074219 95.78125 96.398438 C 95.78125 92.71875 92.792969 89.722656 89.121094 89.722656 C 86.496094 89.722656 84.226562 91.261719 83.144531 93.484375 L 74.910156 93.484375 L 74.910156 79.1875 L 83.144531 79.1875 C 84.226562 81.410156 86.496094 82.949219 89.121094 82.949219 C 92.792969 82.949219 95.78125 79.953125 95.78125 76.277344 C 95.78125 72.597656 92.792969 69.605469 89.121094 69.605469 C 86.496094 69.605469 84.226562 71.140625 83.144531 73.363281 L 74.910156 73.363281 L 74.910156 59.070312 L 83.144531 59.070312 C 84.226562 61.289062 86.496094 62.832031 89.121094 62.832031 C 92.792969 62.832031 95.78125 59.835938 95.78125 56.15625 C 95.78125 52.476562 92.792969 49.484375 89.121094 49.484375 C 86.496094 49.484375 84.226562 51.023438 83.144531 53.242188 L 74.910156 53.242188 L 74.910156 37.054688 L 287.628906 37.054688 L 287.628906 316.5 L 74.910156 316.5 Z M 293.445312 55.820312 L 293.445312 31.230469 L 69.09375 31.230469 L 69.09375 53.242188 L 64.863281 53.242188 C 63.257812 53.242188 61.957031 54.546875 61.957031 56.15625 C 61.957031 57.765625 63.257812 59.070312 64.863281 59.070312 L 69.09375 59.070312 L 69.09375 73.363281 L 64.863281 73.363281 C 63.257812 73.363281 61.957031 74.667969 61.957031 76.277344 C 61.957031 77.886719 63.257812 79.1875 64.863281 79.1875 L 69.09375 79.1875 L 69.09375 93.484375 L 64.863281 93.484375 C 63.257812 93.484375 61.957031 94.785156 61.957031 96.398438 C 61.957031 98.003906 63.257812 99.308594 64.863281 99.308594 L 69.09375 99.308594 L 69.09375 113.601562 L 64.863281 113.601562 C 63.257812 113.601562 61.957031 114.90625 61.957031 116.515625 C 61.957031 118.125 63.257812 119.425781 64.863281 119.425781 L 69.09375 119.425781 L 69.09375 133.722656 L 64.863281 133.722656 C 63.257812 133.722656 61.957031 135.023438 61.957031 136.632812 C 61.957031 138.242188 63.257812 139.546875 64.863281 139.546875 L 69.09375 139.546875 L 69.09375 153.839844 L 64.863281 153.839844 C 63.257812 153.839844 61.957031 155.144531 61.957031 156.753906 C 61.957031 158.363281 63.257812 159.664062 64.863281 159.664062 L 69.09375 159.664062 L 69.09375 173.960938 L 64.863281 173.960938 C 63.257812 173.960938 61.957031 175.261719 61.957031 176.871094 C 61.957031 178.480469 63.257812 179.785156 64.863281 179.785156 L 69.09375 179.785156 L 69.09375 194.078125 L 64.863281 194.078125 C 63.257812 194.078125 61.957031 195.382812 61.957031 196.992188 C 61.957031 198.601562 63.257812 199.90625 64.863281 199.90625 L 69.09375 199.90625 L 69.09375 214.199219 L 64.863281 214.199219 C 63.257812 214.199219 61.957031 215.503906 61.957031 217.109375 C 61.957031 218.722656 63.257812 220.023438 64.863281 220.023438 L 69.09375 220.023438 L 69.09375 234.316406 L 64.863281 234.316406 C 63.257812 234.316406 61.957031 235.621094 61.957031 237.230469 C 61.957031 238.839844 63.257812 240.144531 64.863281 240.144531 L 69.09375 240.144531 L 69.09375 254.433594 L 64.863281 254.433594 C 63.257812 254.433594 61.957031 255.742188 61.957031 257.347656 C 61.957031 258.960938 63.257812 260.261719 64.863281 260.261719 L 69.09375 260.261719 L 69.09375 274.554688 L 64.863281 274.554688 C 63.257812 274.554688 61.957031 275.859375 61.957031 277.46875 C 61.957031 279.078125 63.257812 280.382812 64.863281 280.382812 L 69.09375 280.382812 L 69.09375 294.671875 L 64.863281 294.671875 C 63.257812 294.671875 61.957031 295.980469 61.957031 297.585938 C 61.957031 299.195312 63.257812 300.5 64.863281 300.5 L 69.09375 300.5 L 69.09375 322.328125 L 91.214844 322.328125 L 91.214844 344.003906 L 312.660156 344.003906 L 312.660156 55.820312 L 293.445312 55.820312 "/>
</g>
<g clip-path="url(#clip2)" clip-rule="nonzero">
<path style=" stroke:none;fill-rule:nonzero;fill:rgb(0%,0%,0%);fill-opacity:1;" d="M 255.675781 110.171875 L 225.21875 110.171875 L 225.21875 97.300781 C 225.21875 96.683594 224.714844 96.171875 224.105469 96.171875 L 211.371094 96.171875 L 211.371094 65.644531 L 236.246094 65.644531 C 236.25 65.570312 236.246094 65.496094 236.25 65.421875 C 236.3125 64.34375 236.523438 63.328125 236.855469 62.398438 L 209.277344 62.398438 C 208.65625 62.398438 208.152344 62.910156 208.152344 63.539062 L 208.152344 97.488281 L 223.914062 113.417969 L 257.765625 113.417969 C 258.390625 113.417969 258.894531 112.90625 258.894531 112.277344 L 258.894531 81.972656 C 257.976562 82.652344 256.886719 83.132812 255.675781 83.398438 Z M 268.859375 62.492188 C 268.574219 62.746094 268.222656 62.914062 267.804688 62.992188 C 266.109375 63.769531 264.847656 64.511719 264.328125 65.039062 C 263.542969 65.789062 261.414062 68.644531 259.515625 71.265625 C 260.78125 75.042969 260.523438 78.628906 258.269531 80.589844 C 256.992188 81.628906 255.257812 82.152344 253.328125 82.152344 C 250.003906 82.152344 246.09375 80.597656 242.925781 77.441406 L 236.152344 83.726562 C 236.210938 83.914062 236.25 84.109375 236.25 84.316406 C 236.25 85.390625 235.386719 86.261719 234.324219 86.261719 C 233.261719 86.261719 232.398438 85.390625 232.398438 84.316406 C 232.398438 83.238281 233.261719 82.371094 234.324219 82.371094 C 234.527344 82.371094 234.714844 82.410156 234.902344 82.46875 L 241.539062 75.886719 C 236.632812 69.835938 236.773438 62.972656 240.113281 60.054688 C 240.945312 59.328125 242.414062 58.773438 244.300781 58.773438 C 245.472656 58.773438 246.8125 58.992188 248.265625 59.511719 C 251.257812 57.367188 254.691406 54.898438 254.949219 54.679688 C 256.039062 53.914062 256.832031 52.652344 257.316406 51.6875 C 257.402344 51.070312 257.640625 50.578125 258.03125 50.226562 C 258.4375 49.859375 258.972656 49.671875 259.613281 49.671875 C 261.445312 49.671875 264.066406 51.292969 266.28125 53.800781 C 269.367188 57.296875 270.476562 61.03125 268.859375 62.492188 "/>
</g>
</g>
</svg>
