<?xml version="1.0" encoding="UTF-8"?>
<svg xmlns="http://www.w3.org/2000/svg" xmlns:xlink="http://www.w3.org/1999/xlink" width="375pt" height="374.999991pt" viewBox="0 0 375 374.999991" version="1.2">
<defs>
<clipPath id="clip1">
  <path d="M 97 87 L 339.75 87 L 339.75 269 L 97 269 Z M 97 87 "/>
</clipPath>
<clipPath id="clip2">
  <path d="M 38 48.277344 L 318 48.277344 L 318 326.339844 L 38 326.339844 Z M 38 48.277344 "/>
</clipPath>
</defs>
<g id="surface1">
<g clip-path="url(#clip1)" clip-rule="nonzero">
<path style=" stroke:none;fill-rule:nonzero;fill:rgb(0%,0%,0%);fill-opacity:1;" d="M 142.316406 232.445312 L 172.90625 267.183594 L 173.992188 268.410156 L 339.144531 123.699219 L 307.457031 87.734375 L 177.839844 201.316406 L 132.632812 150.015625 L 97.097656 181.148438 Z M 142.316406 232.445312 "/>
</g>
<g clip-path="url(#clip2)" clip-rule="nonzero">
<path style=" stroke:none;fill-rule:nonzero;fill:rgb(0%,0%,0%);fill-opacity:1;" d="M 282.242188 291.582031 L 73.136719 291.582031 L 73.136719 83.035156 L 282.242188 83.035156 L 282.242188 88.984375 L 311.167969 63.703125 C 304.917969 54.402344 294.304688 48.277344 282.242188 48.277344 L 73.136719 48.277344 C 53.890625 48.277344 38.285156 63.839844 38.285156 83.035156 L 38.285156 291.582031 C 38.285156 310.773438 53.890625 326.339844 73.136719 326.339844 L 282.242188 326.339844 C 301.488281 326.339844 317.089844 310.773438 317.089844 291.582031 L 317.089844 163.585938 L 282.242188 194.121094 Z M 282.242188 291.582031 "/>
</g>
</g>
</svg>
