<svg width="504" height="500" viewBox="0 0 504 500" fill="none" xmlns="http://www.w3.org/2000/svg" aria-labelledby='tomou-logo' id='svg' role='presentation'>
    <title id='tomou-logo' lang='en'>
        Tomou Logo Favicon
    </title>
    <g id="tomou-logo">
        <g id="squiggly-circle">
            <path id="Vector" d="M254.325 475.097C299.73 454.713 330.357 408.723 338.35 348.919C346.906 284.853 326.236 219.593 285.673 182.666C259.16 158.513 226.469 145.747 191.12 145.747C167.528 145.747 143.415 151.34 120.302 162.072C141.444 147.644 163.886 140.123 186.192 140.123C201.277 140.123 216.098 143.625 230.254 150.557C230.619 150.734 230.997 150.823 231.383 150.823C232.747 150.823 233.94 149.717 234.218 148.2C234.483 146.78 233.854 145.424 232.661 144.835C217.076 137.153 200.87 133.255 184.499 133.255C150.222 133.255 115.431 150.565 86.5176 182.004C67.0328 196.183 50.0763 213.71 36.5198 233.352C65.0971 168.802 135.43 130.705 199.856 130.705C214.741 130.705 228.976 132.763 242.168 136.814C273.381 146.409 299.944 171.546 318.986 209.514C346.613 264.582 355.792 343.851 341.314 402.292C327.557 457.811 295.894 485.967 247.182 485.967C240.382 485.967 233.247 485.402 225.826 484.321C235.79 482.174 245.368 479.116 254.325 475.097ZM35.0627 376.937C44.5694 408.99 64.04 436.193 91.9531 456.149C118.873 475.403 151.872 486.532 185.513 487.807C176.249 489.372 166.714 490.163 157 490.163C129.83 490.163 102.867 484.03 79.0322 472.426C48.9764 457.803 27.1988 432.892 16.0493 400.412C4.93545 368.004 5.1783 329.551 16.3921 292.721C16.2921 294.125 16.1564 295.529 16.085 296.95C14.7707 325.056 21.5419 352.615 35.0627 376.937ZM63.7329 211.806C61.4187 215.437 59.1974 219.166 57.0832 222.958C51.812 229.422 46.8836 236.281 42.4124 243.342C41.7339 244.424 41.6339 245.739 42.1481 246.853C42.6267 247.918 43.5981 248.644 44.6766 248.789C33.0199 277.372 27.5059 307.013 28.4487 335.16C24.4917 319.997 22.7775 304.317 23.5489 288.573C23.8989 281.278 24.7417 274.193 26.0203 267.326C35.4484 246.74 48.2479 227.913 63.7329 211.806ZM58.2474 408.594C64.7614 415.494 71.9468 421.909 79.7751 427.728C79.8893 428.954 80.5107 430.084 81.525 430.778C106.652 447.87 138.665 466.882 172.15 479.688C126.894 474.137 84.7177 448.055 58.2474 408.594ZM299.137 408.457C316.536 371.958 319.315 325.21 306.765 280.213C294.473 236.16 269.274 198.935 237.625 178.058C218.39 165.373 197.47 158.941 175.449 158.941C144.329 158.941 111.738 172.256 83.4678 196.054C85.2177 193.94 87.0033 191.874 88.8175 189.856C122.166 165.445 162.543 153.034 201.227 155.358C238.49 157.594 272.531 175.888 297.066 206.875C322.736 239.267 335.635 281.722 333.414 326.404C330.321 388.42 301.015 439.324 255.382 464.324C273.745 449.419 288.659 430.431 299.137 408.457ZM204.663 480.035C184.842 474.919 163.179 466.511 139.801 454.85C148.036 456.48 156.272 457.303 164.436 457.303C164.436 457.303 164.436 457.303 164.443 457.303C189.556 457.303 213.219 449.306 232.861 434.175C233.89 433.376 234.34 431.932 233.968 430.568C233.426 428.599 231.283 427.711 229.804 428.865C210.205 443.915 188.285 451.549 164.636 451.549C164.629 451.549 164.629 451.549 164.621 451.549C127.659 451.549 89.0961 431.835 61.4544 398.798C52.1048 387.613 44.4123 375.468 38.4197 362.694C28.9487 321.748 36.3412 274.193 60.3402 230.253C92.3602 191.075 133.751 168.609 173.921 168.609C194.534 168.609 214.712 174.306 233.883 185.539C263.896 203.123 286.68 235.757 298.044 277.445C310.551 323.321 307.165 373.483 288.987 411.637C274.731 441.527 251.232 464.259 221.019 477.364C216.205 478.47 211.248 479.317 206.284 479.89C205.748 479.955 205.198 479.979 204.663 480.035ZM332.893 222.7C310.508 172.692 276.417 138.493 236.89 126.412C223.869 122.434 210.148 120.416 196.099 120.416C153.65 120.416 109.674 138.872 75.4467 171.046C49.9906 194.972 32.0486 224.29 22.8847 256.093C18.8063 263.985 15.2207 272.111 12.2423 280.415C-18.5564 366.398 10.0567 448.168 83.4463 483.893C105.081 494.432 129.416 500 153.808 500C172.292 500 190.835 496.748 208.219 490.623C220.026 493.181 231.783 494.658 243.254 494.658C293.08 494.658 327.8 467.051 346.449 412.605C365.256 357.69 359.934 283.15 332.893 222.7Z" fill="#A6A6A6"/>
        </g>
        <g id="checkmark" filter="url(#filter0_d)">
            <path id="Vector_2" d="M245.568 280.536C203.041 211.41 167.093 118.835 84.2249 211.41C143.101 260.805 175.799 332.4 200.863 411.386C201.97 416.317 207.434 418.786 211.791 417.576C230.319 412.645 248.853 407.715 266.31 402.736C269.56 401.525 271.738 400.274 272.845 396.594C334.964 253.413 411.296 128.696 497.414 17.6161C505.057 8.95727 494.164 -4.62407 485.415 1.5654C392.769 68.2213 312.079 160.797 245.568 280.536Z" fill="#67E4BE"/>
        </g>
    </g>

    <defs>
        <filter id="filter0_d" x="80.2249" y="0" width="423.775" height="425.88" filterUnits="userSpaceOnUse" color-interpolation-filters="sRGB">
        <feFlood flood-opacity="0" result="BackgroundImageFix"/>
        <feColorMatrix in="SourceAlpha" type="matrix" values="0 0 0 0 0 0 0 0 0 0 0 0 0 0 0 0 0 0 127 0"/>
        <feOffset dy="4"/>
        <feGaussianBlur stdDeviation="2"/>
        <feColorMatrix type="matrix" values="0 0 0 0 0 0 0 0 0 0 0 0 0 0 0 0 0 0 0.25 0"/>
        <feBlend mode="normal" in2="BackgroundImageFix" result="effect1_dropShadow"/>
        <feBlend mode="normal" in="SourceGraphic" in2="effect1_dropShadow" result="shape"/>
    </filter>
    </defs>
</svg>
