<svg width="500" height="500" viewBox="0 0 500 500" fill="none" xmlns="http://www.w3.org/2000/svg">
<g id="react-components-logo">
<path id="Vector" d="M440.791 13.157C440.791 13.5926 440.75 14.0164 440.667 14.4403C440.579 14.8641 440.455 15.2762 440.29 15.6765C440.126 16.0768 439.919 16.4536 439.684 16.8127C439.443 17.1717 439.172 17.5073 438.866 17.8134C438.56 18.1136 438.224 18.3903 437.865 18.6317C437.506 18.8671 437.129 19.0732 436.729 19.238C436.329 19.4028 435.916 19.5265 435.493 19.6089C435.069 19.6972 434.645 19.7384 434.209 19.7384C433.78 19.7384 433.35 19.6972 432.926 19.6089C432.502 19.5265 432.096 19.4028 431.696 19.238C431.295 19.0732 430.919 18.8671 430.554 18.6317C430.195 18.3903 429.865 18.1136 429.559 17.8134C429.253 17.5073 428.982 17.1717 428.74 16.8127C428.499 16.4536 428.299 16.0768 428.134 15.6765C427.969 15.2762 427.846 14.8641 427.757 14.4403C427.675 14.0164 427.634 13.5926 427.634 13.157C427.634 12.7272 427.675 12.2975 427.757 11.8736C427.846 11.4498 427.969 11.0377 428.134 10.6433C428.299 10.243 428.499 9.86036 428.74 9.50127C428.982 9.14217 429.253 8.81251 429.559 8.5064C429.865 8.20029 430.195 7.9295 430.559 7.68814C430.919 7.44678 431.295 7.24663 431.696 7.0818C432.096 6.91697 432.502 6.79334 432.926 6.70504C433.35 6.62263 433.78 6.58142 434.209 6.58142C434.645 6.58142 435.069 6.62263 435.493 6.70504C435.916 6.79334 436.329 6.91697 436.729 7.0818C437.129 7.24663 437.506 7.44678 437.865 7.68814C438.224 7.9295 438.56 8.20029 438.866 8.5064C439.172 8.81251 439.443 9.14217 439.684 9.50127C439.919 9.86036 440.126 10.243 440.29 10.6433C440.455 11.0377 440.579 11.4498 440.667 11.8736C440.75 12.2975 440.791 12.7272 440.791 13.157Z" fill="#F1BC19"/>
<g id="Group">
<path id="Vector_2" d="M500 250C500 254.091 499.9 258.183 499.7 262.268C499.5 266.353 499.199 270.433 498.799 274.507C498.399 278.574 497.898 282.636 497.298 286.686C496.698 290.731 495.997 294.763 495.196 298.772C494.402 302.787 493.501 306.778 492.506 310.746C491.517 314.713 490.422 318.658 489.239 322.572C488.05 326.487 486.766 330.372 485.389 334.222C484.011 338.078 482.534 341.893 480.974 345.672C479.408 349.451 477.748 353.189 476 356.892C474.251 360.589 472.409 364.245 470.484 367.848C468.553 371.456 466.54 375.018 464.432 378.526C462.33 382.035 460.141 385.49 457.868 388.893C455.596 392.295 453.241 395.639 450.804 398.924C448.367 402.215 445.847 405.435 443.251 408.602C440.655 411.763 437.989 414.859 435.239 417.891C432.49 420.923 429.671 423.884 426.78 426.78C423.884 429.671 420.923 432.49 417.891 435.239C414.859 437.989 411.763 440.655 408.602 443.251C405.435 445.847 402.215 448.367 398.924 450.804C395.639 453.241 392.295 455.596 388.893 457.868C385.49 460.141 382.035 462.33 378.526 464.432C375.018 466.54 371.456 468.553 367.848 470.484C364.245 472.409 360.589 474.251 356.892 476C353.189 477.748 349.451 479.408 345.672 480.974C341.893 482.534 338.078 484.011 334.222 485.389C330.372 486.766 326.487 488.05 322.572 489.239C318.658 490.422 314.713 491.517 310.746 492.506C306.778 493.501 302.787 494.402 298.772 495.196C294.763 495.997 290.731 496.698 286.686 497.298C282.636 497.898 278.574 498.399 274.507 498.799C270.433 499.199 266.353 499.5 262.268 499.7C258.183 499.9 254.091 500 250 500C245.909 500 241.823 499.9 237.732 499.7C233.647 499.5 229.567 499.199 225.499 498.799C221.426 498.399 217.364 497.898 213.319 497.298C209.269 496.698 205.243 495.997 201.228 495.196C197.213 494.402 193.222 493.501 189.254 492.506C185.287 491.517 181.342 490.422 177.428 489.239C173.513 488.05 169.634 486.766 165.778 485.389C161.928 484.011 158.107 482.534 154.328 480.974C150.549 479.408 146.811 477.748 143.114 476C139.411 474.251 135.761 472.409 132.152 470.484C128.544 468.553 124.982 466.54 121.474 464.432C117.965 462.33 114.51 460.141 111.107 457.868C107.705 455.596 104.361 453.241 101.076 450.804C97.7913 448.367 94.5653 445.847 91.4041 443.251C88.237 440.655 85.1406 437.989 82.1089 435.239C79.0772 432.49 76.1161 429.671 73.2257 426.78C70.3294 423.884 67.5097 420.923 64.7605 417.891C62.0173 414.859 59.3447 411.763 56.7486 408.602C54.1525 405.435 51.6389 402.215 49.2018 398.924C46.7646 395.639 44.404 392.295 42.1317 388.893C39.8594 385.49 37.6695 382.035 35.568 378.526C33.4664 375.018 31.4472 371.456 29.5222 367.848C27.5914 364.245 25.7547 360.589 24.0063 356.892C22.252 353.189 20.5979 349.451 19.032 345.672C17.4661 341.893 15.9944 338.078 14.6169 334.222C13.2394 330.372 11.9561 326.487 10.7669 322.572C9.5778 318.658 8.48874 314.713 7.49388 310.746C6.49901 306.778 5.60422 302.787 4.80362 298.772C4.0089 294.763 3.30837 290.731 2.70792 286.686C2.10747 282.636 1.60709 278.574 1.20679 274.507C0.80649 270.433 0.500376 266.353 0.300226 262.268C0.100075 258.183 0 254.091 0 250C0 245.909 0.100075 241.823 0.300226 237.732C0.500376 233.647 0.80649 229.567 1.20679 225.499C1.60709 221.426 2.10747 217.364 2.70792 213.319C3.30837 209.269 4.0089 205.243 4.80362 201.228C5.60422 197.213 6.49901 193.222 7.49388 189.254C8.48874 185.287 9.5778 181.342 10.7669 177.428C11.9561 173.513 13.2394 169.634 14.6169 165.778C15.9944 161.928 17.4661 158.107 19.032 154.328C20.5979 150.549 22.252 146.811 24.0063 143.114C25.7547 139.411 27.5914 135.761 29.5222 132.152C31.4472 128.544 33.4664 124.982 35.568 121.474C37.6695 117.965 39.8594 114.51 42.1317 111.107C44.404 107.705 46.7646 104.361 49.2018 101.076C51.6389 97.7913 54.1525 94.5653 56.7486 91.4041C59.3447 88.237 62.0173 85.1406 64.7605 82.1089C67.5097 79.0772 70.3294 76.1161 73.2257 73.2257C76.1161 70.3294 79.0772 67.5097 82.1089 64.7605C85.1406 62.0173 88.237 59.3447 91.4041 56.7486C94.5653 54.1525 97.7913 51.6389 101.076 49.2018C104.361 46.7646 107.705 44.404 111.107 42.1317C114.51 39.8594 117.965 37.6695 121.474 35.568C124.982 33.4664 128.544 31.4472 132.152 29.5222C135.761 27.5914 139.411 25.7547 143.114 24.0063C146.811 22.252 150.549 20.5979 154.328 19.032C158.107 17.4661 161.928 15.9944 165.778 14.6169C169.634 13.2394 173.513 11.9561 177.428 10.7669C181.342 9.5778 185.287 8.48874 189.254 7.49388C193.222 6.49901 197.213 5.60422 201.228 4.80362C205.243 4.0089 209.269 3.30837 213.319 2.70792C217.364 2.10747 221.426 1.60709 225.499 1.20679C229.567 0.80649 233.647 0.500376 237.732 0.300226C241.823 0.100075 245.909 0 250 0C254.091 0 258.183 0.100075 262.268 0.300226C266.353 0.500376 270.433 0.80649 274.507 1.20679C278.574 1.60709 282.636 2.10747 286.686 2.70792C290.731 3.30837 294.763 4.0089 298.772 4.80362C302.787 5.60422 306.778 6.49901 310.746 7.49388C314.713 8.48874 318.658 9.5778 322.572 10.7669C326.487 11.9561 330.372 13.2394 334.222 14.6169C338.078 15.9944 341.893 17.4661 345.672 19.032C349.451 20.5979 353.189 22.252 356.892 24.0063C360.589 25.7547 364.245 27.5914 367.848 29.5222C371.456 31.4472 375.018 33.4664 378.526 35.568C382.035 37.6695 385.49 39.8594 388.893 42.1317C392.295 44.404 395.639 46.7646 398.924 49.2018C402.215 51.6389 405.435 54.1525 408.602 56.7486C411.763 59.3447 414.859 62.0173 417.891 64.7605C420.923 67.5097 423.884 70.3294 426.78 73.2257C429.671 76.1161 432.49 79.0772 435.239 82.1089C437.989 85.1406 440.655 88.237 443.251 91.4041C445.847 94.5653 448.367 97.7913 450.804 101.076C453.241 104.361 455.596 107.705 457.868 111.107C460.141 114.51 462.33 117.965 464.432 121.474C466.54 124.982 468.553 128.544 470.484 132.152C472.409 135.761 474.251 139.411 476 143.114C477.748 146.811 479.408 150.549 480.974 154.328C482.534 158.107 484.011 161.928 485.389 165.778C486.766 169.634 488.05 173.513 489.239 177.428C490.422 181.342 491.517 185.287 492.506 189.254C493.501 193.222 494.402 197.213 495.196 201.228C495.997 205.243 496.698 209.269 497.298 213.319C497.898 217.364 498.399 221.426 498.799 225.499C499.199 229.567 499.5 233.647 499.7 237.732C499.9 241.823 500 245.909 500 250Z" fill="#F9DBD2"/>
</g>
<g id="Group_2">
<path id="Vector_3" d="M500 26.3139C500 27.1793 499.959 28.0388 499.876 28.8982C499.788 29.7518 499.664 30.6054 499.494 31.4531C499.329 32.2949 499.117 33.1308 498.87 33.955C498.617 34.7791 498.328 35.5915 497.998 36.3862C497.669 37.1809 497.298 37.9639 496.892 38.7233C496.486 39.4827 496.044 40.2185 495.567 40.9367C495.085 41.6549 494.572 42.3436 494.025 43.0089C493.483 43.6799 492.901 44.3157 492.294 44.9221C491.682 45.5343 491.046 46.1112 490.381 46.6587C489.716 47.2061 489.021 47.7183 488.303 48.1951C487.591 48.6778 486.849 49.1193 486.09 49.5255C485.33 49.9317 484.553 50.2967 483.758 50.6264C482.958 50.9619 482.151 51.2504 481.327 51.4976C480.497 51.7507 479.667 51.9568 478.819 52.1275C477.972 52.2923 477.124 52.4218 476.264 52.5042C475.405 52.5925 474.546 52.6337 473.686 52.6337C472.821 52.6337 471.961 52.5925 471.108 52.5042C470.248 52.4218 469.395 52.2923 468.553 52.1275C467.705 51.9568 466.869 51.7507 466.045 51.4976C465.221 51.2504 464.408 50.9619 463.614 50.6264C462.819 50.2967 462.042 49.9317 461.283 49.5255C460.517 49.1193 459.781 48.6778 459.063 48.1951C458.351 47.7183 457.656 47.2061 456.991 46.6587C456.326 46.1112 455.684 45.5343 455.078 44.9221C454.466 44.3157 453.889 43.6799 453.341 43.0089C452.794 42.3436 452.282 41.6549 451.805 40.9367C451.328 40.2185 450.881 39.4827 450.474 38.7233C450.068 37.9639 449.703 37.1809 449.374 36.3862C449.044 35.5915 448.756 34.7791 448.502 33.955C448.255 33.1308 448.043 32.2949 447.873 31.4531C447.708 30.6054 447.578 29.7518 447.496 28.8982C447.413 28.0388 447.372 27.1793 447.372 26.3139C447.372 25.4545 447.413 24.595 447.496 23.7355C447.578 22.8819 447.708 22.0284 447.873 21.1807C448.043 20.3388 448.255 19.5029 448.502 18.6788C448.756 17.8546 449.044 17.0422 449.374 16.2475C449.703 15.4469 450.068 14.6699 450.474 13.9105C450.881 13.1511 451.328 12.4152 451.805 11.697C452.282 10.9789 452.794 10.2901 453.341 9.62489C453.889 8.9538 454.466 8.31803 455.078 7.7058C455.684 7.09946 456.326 6.52256 456.991 5.97509C457.656 5.42762 458.351 4.91547 459.063 4.43864C459.781 3.95592 460.517 3.51441 461.283 3.10822C462.042 2.70203 462.819 2.33117 463.614 2.00151C464.408 1.67185 465.221 1.3834 466.045 1.13615C466.869 0.883017 467.705 0.676981 468.553 0.506264C469.395 0.335547 470.248 0.211925 471.108 0.129509C471.961 0.0412071 472.821 0 473.686 0C474.546 0 475.405 0.0412071 476.264 0.129509C477.124 0.211925 477.972 0.335547 478.819 0.506264C479.667 0.676981 480.497 0.883017 481.327 1.13615C482.151 1.3834 482.958 1.67185 483.758 2.00151C484.553 2.33117 485.33 2.70203 486.09 3.10822C486.849 3.51441 487.591 3.95592 488.303 4.43864C489.021 4.91547 489.716 5.42762 490.381 5.97509C491.046 6.52256 491.682 7.09946 492.294 7.7058C492.901 8.31803 493.483 8.9538 494.025 9.62489C494.572 10.2901 495.085 10.9789 495.567 11.697C496.044 12.4152 496.486 13.1511 496.892 13.9105C497.298 14.6699 497.669 15.4469 497.998 16.2475C498.328 17.0422 498.617 17.8546 498.87 18.6788C499.117 19.5029 499.329 20.3388 499.494 21.1807C499.664 22.0284 499.788 22.8819 499.876 23.7355C499.959 24.595 500 25.4545 500 26.3139Z" fill="#F1BC19"/>
</g>
<g id="Group_3">
<path id="Vector_4" d="M26.3139 92.1046C26.3139 92.97 26.2315 93.8236 26.0667 94.6713C25.896 95.519 25.6428 96.3431 25.3132 97.1437C24.9835 97.9384 24.5773 98.6978 24.1005 99.416C23.6178 100.134 23.0762 100.799 22.464 101.412C21.8517 102.024 21.1865 102.565 20.4684 103.048C19.7502 103.525 18.9908 103.931 18.1961 104.261C17.3955 104.591 16.5713 104.844 15.7236 105.008C14.8759 105.179 14.0223 105.262 13.157 105.262C12.2975 105.262 11.438 105.179 10.5903 105.008C9.74263 104.844 8.92437 104.591 8.12376 104.261C7.32316 103.931 6.56965 103.525 5.85146 103.048C5.12739 102.565 4.46807 102.024 3.85584 101.412C3.24362 100.799 2.69615 100.134 2.21932 99.416C1.7366 98.6978 1.33041 97.9384 1.00075 97.1437C0.671094 96.3431 0.423848 95.519 0.253132 94.6713C0.0824139 93.8236 0 92.97 0 92.1046C0 91.2393 0.0824139 90.3857 0.253132 89.538C0.423848 88.6903 0.671094 87.8662 1.00075 87.0714C1.33041 86.2708 1.7366 85.5173 2.21932 84.7933C2.69615 84.0751 3.24362 83.4157 3.85584 82.8035C4.46807 82.1913 5.12739 81.6438 5.85146 81.167C6.56965 80.6843 7.32316 80.2781 8.12376 79.9484C8.92437 79.6188 9.74263 79.3715 10.5903 79.2008C11.438 79.0301 12.2975 78.9477 13.157 78.9477C14.0223 78.9477 14.8759 79.0301 15.7236 79.2008C16.5713 79.3715 17.3955 79.6188 18.1961 79.9484C18.9908 80.2781 19.7502 80.6843 20.4684 81.167C21.1865 81.6438 21.8517 82.1913 22.464 82.8035C23.0762 83.4157 23.6178 84.0751 24.1005 84.7933C24.5773 85.5173 24.9835 86.2708 25.3132 87.0714C25.6428 87.8662 25.896 88.6903 26.0667 89.538C26.2315 90.3857 26.3139 91.2393 26.3139 92.1046Z" fill="#EE3E54"/>
</g>
<path id="Vector_5" d="M447.372 427.634C447.372 428.499 447.284 429.353 447.119 430.2C446.948 431.048 446.701 431.872 446.365 432.667C446.036 433.468 445.63 434.227 445.153 434.945C444.67 435.663 444.129 436.329 443.516 436.935C442.904 437.547 442.239 438.095 441.521 438.571C440.802 439.054 440.043 439.46 439.248 439.79C438.448 440.12 437.624 440.367 436.776 440.538C435.934 440.708 435.075 440.791 434.209 440.791C433.35 440.791 432.49 440.708 431.643 440.538C430.795 440.367 429.977 440.12 429.176 439.79C428.375 439.46 427.622 439.054 426.904 438.571C426.186 438.095 425.52 437.547 424.908 436.935C424.296 436.329 423.748 435.663 423.272 434.945C422.789 434.227 422.389 433.468 422.053 432.667C421.723 431.872 421.476 431.048 421.305 430.2C421.141 429.353 421.052 428.499 421.052 427.634C421.052 426.768 421.141 425.915 421.305 425.067C421.476 424.219 421.723 423.395 422.053 422.595C422.389 421.8 422.789 421.041 423.272 420.322C423.748 419.604 424.296 418.939 424.908 418.327C425.52 417.72 426.186 417.173 426.904 416.69C427.622 416.213 428.375 415.807 429.176 415.478C429.977 415.148 430.795 414.895 431.643 414.73C432.49 414.559 433.35 414.477 434.209 414.477C435.075 414.477 435.934 414.559 436.776 414.73C437.624 414.895 438.448 415.148 439.248 415.478C440.043 415.807 440.802 416.213 441.521 416.69C442.239 417.173 442.904 417.72 443.516 418.327C444.129 418.939 444.67 419.604 445.153 420.322C445.63 421.041 446.036 421.8 446.365 422.595C446.701 423.395 446.948 424.219 447.119 425.067C447.284 425.915 447.372 426.768 447.372 427.634Z" fill="#FBCD59"/>
<path id="Vector_6" d="M59.2093 434.209C59.2093 435.075 59.1681 435.934 59.0857 436.794C58.9974 437.647 58.8737 438.501 58.703 439.348C58.5382 440.19 58.3263 441.026 58.079 441.85C57.8259 442.674 57.5374 443.487 57.2078 444.282C56.8781 445.076 56.5131 445.859 56.1069 446.619C55.6949 447.378 55.2534 448.114 54.7765 448.832C54.2997 449.55 53.7876 450.239 53.2401 450.904C52.6926 451.575 52.1157 452.211 51.5035 452.817C50.8971 453.43 50.2555 454.007 49.5903 454.554C48.9251 455.101 48.2304 455.614 47.5181 456.09C46.7999 456.573 46.0582 457.015 45.2988 457.421C44.5394 457.827 43.7624 458.192 42.9676 458.522C42.1729 458.851 41.3605 459.146 40.5364 459.393C39.7122 459.646 38.8763 459.852 38.0286 460.023C37.1868 460.188 36.3332 460.317 35.4738 460.4C34.6202 460.488 33.7548 460.529 32.8954 460.529C32.0359 460.529 31.1764 460.488 30.3169 460.4C29.4575 460.317 28.6098 460.188 27.7621 460.023C26.9144 459.852 26.0785 459.646 25.2543 459.393C24.4302 459.146 23.6237 458.851 22.8231 458.522C22.0283 458.192 21.2513 457.827 20.4919 457.421C19.7325 457.015 18.9908 456.573 18.2726 456.09C17.5603 455.614 16.8656 455.101 16.2004 454.554C15.5352 454.007 14.8994 453.43 14.2872 452.817C13.6809 452.211 13.0981 451.575 12.5506 450.904C12.009 450.239 11.491 449.55 11.0142 448.832C10.5373 448.114 10.0958 447.378 9.68964 446.619C9.28346 445.859 8.91259 445.076 8.58293 444.282C8.25327 443.487 7.96482 442.674 7.71168 441.85C7.46444 441.026 7.25251 440.19 7.08768 439.348C6.91697 438.501 6.79334 437.647 6.70504 436.794C6.62263 435.934 6.58142 435.075 6.58142 434.209C6.58142 433.35 6.62263 432.49 6.70504 431.631C6.79334 430.777 6.91697 429.924 7.08768 429.076C7.25251 428.234 7.46444 427.398 7.71168 426.574C7.96482 425.75 8.25327 424.938 8.58293 424.143C8.91259 423.342 9.28346 422.565 9.68964 421.806C10.0958 421.046 10.5373 420.311 11.0142 419.592C11.491 418.874 12.009 418.185 12.5506 417.514C13.0981 416.849 13.6809 416.213 14.2872 415.601C14.8994 414.995 15.5352 414.418 16.2004 413.87C16.8656 413.323 17.5603 412.811 18.2726 412.328C18.9908 411.851 19.7325 411.41 20.4919 411.004C21.2513 410.597 22.0283 410.227 22.8231 409.897C23.6237 409.567 24.4302 409.279 25.2543 409.032C26.0785 408.778 26.9144 408.572 27.7621 408.402C28.6098 408.231 29.4575 408.107 30.3169 408.025C31.1764 407.937 32.0359 407.895 32.8954 407.895C33.7548 407.895 34.6202 407.937 35.4738 408.025C36.3332 408.107 37.1868 408.231 38.0286 408.402C38.8763 408.572 39.7122 408.778 40.5364 409.032C41.3605 409.279 42.1729 409.567 42.9676 409.897C43.7624 410.227 44.5394 410.597 45.2988 411.004C46.0582 411.41 46.7999 411.851 47.5181 412.328C48.2304 412.811 48.9251 413.323 49.5903 413.87C50.2555 414.418 50.8971 414.995 51.5035 415.601C52.1157 416.213 52.6926 416.849 53.2401 417.514C53.7876 418.185 54.2997 418.874 54.7765 419.592C55.2534 420.311 55.6949 421.046 56.1069 421.806C56.5131 422.565 56.8781 423.342 57.2078 424.143C57.5374 424.938 57.8259 425.75 58.079 426.574C58.3263 427.398 58.5382 428.234 58.703 429.076C58.8737 429.924 58.9974 430.777 59.0857 431.631C59.1681 432.49 59.2093 433.35 59.2093 434.209Z" fill="#FBCD59"/>
<path id="Vector_7" d="M92.1046 467.105C92.1046 467.97 92.0222 468.824 91.8515 469.671C91.6867 470.519 91.4335 471.343 91.1039 472.144C90.7742 472.938 90.368 473.698 89.8912 474.416C89.4085 475.134 88.861 475.799 88.2547 476.412C87.6425 477.024 86.9772 477.565 86.2591 478.048C85.5409 478.525 84.7815 478.931 83.9809 479.261C83.1862 479.591 82.362 479.844 81.5143 480.014C80.6666 480.179 79.813 480.262 78.9477 480.262C78.0823 480.262 77.2287 480.179 76.381 480.014C75.5333 479.844 74.7092 479.591 73.9145 479.261C73.1139 478.931 72.3545 478.525 71.6363 478.048C70.9181 477.565 70.2529 477.024 69.6466 476.412C69.0343 475.799 68.4869 475.134 68.01 474.416C67.5273 473.698 67.1211 472.938 66.7915 472.144C66.4618 471.343 66.2146 470.519 66.0438 469.671C65.8731 468.824 65.7907 467.97 65.7907 467.105C65.7907 466.245 65.8731 465.386 66.0438 464.538C66.2146 463.69 66.4618 462.872 66.7915 462.071C67.1211 461.271 67.5273 460.517 68.01 459.799C68.4869 459.075 69.0343 458.416 69.6466 457.804C70.2529 457.191 70.9181 456.644 71.6363 456.167C72.3545 455.684 73.1139 455.278 73.9145 454.948C74.7092 454.619 75.5333 454.372 76.381 454.201C77.2287 454.03 78.0823 453.948 78.9477 453.948C79.813 453.948 80.6666 454.03 81.5143 454.201C82.362 454.372 83.1862 454.619 83.9809 454.948C84.7815 455.278 85.5409 455.684 86.2591 456.167C86.9772 456.644 87.6425 457.191 88.2547 457.804C88.861 458.416 89.4085 459.075 89.8912 459.799C90.368 460.517 90.7742 461.271 91.1039 462.071C91.4335 462.872 91.6867 463.69 91.8515 464.538C92.0222 465.386 92.1046 466.245 92.1046 467.105Z" fill="#EE3E54"/>
<path id="Vector_8" d="M375 437.5C375 438.583 374.894 439.649 374.682 440.708C374.476 441.768 374.164 442.798 373.746 443.793C373.334 444.794 372.828 445.741 372.227 446.636C371.627 447.537 370.95 448.367 370.185 449.132C369.419 449.898 368.589 450.575 367.689 451.175C366.794 451.775 365.846 452.282 364.845 452.694C363.85 453.112 362.82 453.424 361.761 453.63C360.701 453.842 359.635 453.948 358.552 453.948C357.475 453.948 356.404 453.842 355.344 453.63C354.284 453.424 353.26 453.112 352.259 452.694C351.264 452.282 350.317 451.775 349.416 451.175C348.515 450.575 347.685 449.898 346.926 449.132C346.161 448.367 345.478 447.537 344.877 446.636C344.277 445.741 343.771 444.794 343.359 443.793C342.946 442.798 342.634 441.768 342.423 440.708C342.211 439.649 342.105 438.583 342.105 437.5C342.105 436.423 342.211 435.351 342.423 434.292C342.634 433.232 342.946 432.202 343.359 431.207C343.771 430.206 344.277 429.258 344.877 428.364C345.478 427.463 346.161 426.633 346.926 425.874C347.685 425.108 348.515 424.425 349.416 423.825C350.317 423.225 351.264 422.718 352.259 422.306C353.26 421.894 354.284 421.582 355.344 421.37C356.404 421.158 357.475 421.052 358.552 421.052C359.635 421.052 360.701 421.158 361.761 421.37C362.82 421.582 363.85 421.894 364.845 422.306C365.846 422.718 366.794 423.225 367.689 423.825C368.589 424.425 369.419 425.108 370.185 425.874C370.95 426.633 371.627 427.463 372.227 428.364C372.828 429.258 373.334 430.206 373.746 431.207C374.164 432.202 374.476 433.232 374.682 434.292C374.894 435.351 375 436.423 375 437.5Z" fill="white"/>
<path id="Vector_9" d="M32.8954 236.843C32.8954 237.273 32.8541 237.703 32.7717 238.126C32.6834 238.55 32.5598 238.962 32.395 239.363C32.2301 239.757 32.0241 240.14 31.7886 240.499C31.5473 240.858 31.2765 241.187 30.9704 241.494C30.6643 241.8 30.3287 242.071 29.9696 242.312C29.6105 242.553 29.2338 242.753 28.8335 242.924C28.4332 243.089 28.0211 243.213 27.5972 243.295C27.1793 243.377 26.7496 243.424 26.3139 243.424C25.8842 243.424 25.4545 243.377 25.0306 243.295C24.6068 243.213 24.2006 243.089 23.8003 242.924C23.4 242.753 23.0232 242.553 22.6641 242.312C22.305 242.071 21.9695 241.8 21.6634 241.494C21.3573 241.187 21.0865 240.858 20.8451 240.499C20.6037 240.14 20.4036 239.757 20.2388 239.363C20.0739 238.962 19.9503 238.55 19.862 238.126C19.7796 237.703 19.7384 237.273 19.7384 236.843C19.7384 236.413 19.7796 235.984 19.862 235.56C19.9503 235.136 20.0739 234.724 20.2388 234.323C20.4036 233.929 20.6037 233.546 20.8451 233.187C21.0865 232.828 21.3573 232.499 21.6634 232.192C21.9695 231.886 22.305 231.616 22.6641 231.374C23.0232 231.133 23.4 230.933 23.8003 230.768C24.2006 230.597 24.6068 230.474 25.0306 230.391C25.4545 230.309 25.8842 230.262 26.3139 230.262C26.7496 230.262 27.1793 230.309 27.5972 230.391C28.0211 230.474 28.4332 230.597 28.8335 230.768C29.2338 230.933 29.6105 231.133 29.9696 231.374C30.3287 231.616 30.6643 231.886 30.9704 232.192C31.2765 232.499 31.5473 232.828 31.7886 233.187C32.0241 233.546 32.2301 233.929 32.395 234.323C32.5598 234.724 32.6834 235.136 32.7717 235.56C32.8541 235.984 32.8954 236.413 32.8954 236.843Z" fill="white"/>
<path id="Vector_10" d="M493.424 125C493.424 125.436 493.377 125.859 493.295 126.283C493.213 126.707 493.089 127.119 492.924 127.52C492.753 127.92 492.553 128.297 492.312 128.656C492.07 129.015 491.8 129.35 491.494 129.651C491.187 129.957 490.858 130.233 490.499 130.469C490.14 130.71 489.757 130.916 489.363 131.081C488.962 131.246 488.55 131.37 488.126 131.452C487.702 131.54 487.273 131.581 486.843 131.581C486.413 131.581 485.984 131.54 485.56 131.452C485.136 131.37 484.724 131.246 484.323 131.081C483.929 130.916 483.546 130.71 483.187 130.469C482.828 130.233 482.499 129.957 482.192 129.651C481.886 129.35 481.616 129.015 481.374 128.656C481.133 128.297 480.933 127.92 480.768 127.52C480.597 127.119 480.474 126.707 480.391 126.283C480.309 125.859 480.262 125.436 480.262 125C480.262 124.57 480.309 124.141 480.391 123.717C480.474 123.293 480.597 122.881 480.768 122.48C480.933 122.086 481.133 121.703 481.374 121.344C481.616 120.985 481.886 120.656 482.192 120.349C482.499 120.043 482.828 119.773 483.187 119.531C483.546 119.29 483.929 119.09 484.323 118.925C484.724 118.76 485.136 118.631 485.56 118.548C485.984 118.466 486.413 118.424 486.843 118.424C487.273 118.424 487.702 118.466 488.126 118.548C488.55 118.631 488.962 118.76 489.363 118.925C489.757 119.09 490.14 119.29 490.499 119.531C490.858 119.773 491.187 120.043 491.494 120.349C491.8 120.656 492.07 120.985 492.312 121.344C492.553 121.703 492.753 122.086 492.924 122.48C493.089 122.881 493.213 123.293 493.295 123.717C493.377 124.141 493.424 124.57 493.424 125Z" fill="#F1BC19"/>
<path id="Vector_11" d="M460.529 355.262C460.529 356.127 460.441 356.986 460.276 357.834C460.105 358.676 459.858 359.5 459.528 360.301C459.193 361.095 458.793 361.855 458.31 362.573C457.827 363.291 457.285 363.956 456.673 364.569C456.061 365.181 455.396 365.722 454.678 366.205C453.959 366.682 453.206 367.088 452.405 367.418C451.605 367.753 450.786 368.001 449.939 368.171C449.091 368.336 448.232 368.424 447.372 368.424C446.507 368.424 445.647 368.336 444.8 368.171C443.958 368.001 443.134 367.753 442.333 367.418C441.538 367.088 440.779 366.682 440.061 366.205C439.343 365.722 438.677 365.181 438.065 364.569C437.453 363.956 436.911 363.291 436.429 362.573C435.952 361.855 435.546 361.095 435.216 360.301C434.88 359.5 434.633 358.676 434.462 357.834C434.298 356.986 434.209 356.127 434.209 355.262C434.209 354.402 434.298 353.543 434.462 352.695C434.633 351.847 434.88 351.029 435.216 350.228C435.546 349.428 435.952 348.674 436.429 347.956C436.911 347.238 437.453 346.573 438.065 345.96C438.677 345.348 439.343 344.807 440.061 344.324C440.779 343.841 441.538 343.441 442.333 343.105C443.134 342.776 443.958 342.528 444.8 342.358C445.647 342.193 446.507 342.105 447.372 342.105C448.232 342.105 449.091 342.193 449.939 342.358C450.786 342.528 451.605 342.776 452.405 343.105C453.206 343.441 453.959 343.841 454.678 344.324C455.396 344.807 456.061 345.348 456.673 345.96C457.285 346.573 457.827 347.238 458.31 347.956C458.793 348.674 459.193 349.428 459.528 350.228C459.858 351.029 460.105 351.847 460.276 352.695C460.441 353.543 460.529 354.402 460.529 355.262Z" fill="white"/>
<path id="Vector_12" d="M250 335.529C144.738 335.529 65.7907 298.684 65.7907 250C65.7907 201.316 144.738 164.477 250 164.477C355.262 164.477 434.209 201.316 434.209 250C434.209 298.684 355.262 335.529 250 335.529ZM250 190.131C155.923 190.131 90.1326 221.714 90.1326 250C90.1326 278.292 155.923 309.869 250 309.869C344.083 309.869 409.867 278.292 409.867 250C409.867 221.714 344.083 190.131 250 190.131Z" fill="#77CBD2"/>
<path id="Vector_13" d="M250 340.133C142.107 340.133 61.1873 301.315 61.1873 250C61.1873 198.685 142.107 159.867 250 159.867C357.893 159.867 438.819 198.685 438.819 250C438.819 301.315 357.893 340.133 250 340.133ZM250 169.08C147.37 169.08 70.3942 203.948 70.3942 250C70.3942 296.052 147.37 330.92 250 330.92C352.63 330.92 429.606 296.052 429.606 250C429.606 203.948 352.63 169.08 250 169.08ZM250 314.472C151.973 314.472 85.5291 280.923 85.5291 250C85.5291 219.083 151.314 185.528 250 185.528C348.686 185.528 414.477 219.083 414.477 250C414.477 280.923 348.027 314.472 250 314.472ZM250 194.741C153.951 194.741 94.736 226.977 94.736 250C94.736 273.029 153.951 305.265 250 305.265C346.055 305.265 405.264 273.029 405.264 250C405.264 226.977 346.055 194.741 250 194.741Z" fill="#472B29"/>
<path id="Vector_14" d="M180.924 415.79C172.371 415.79 165.13 413.817 158.555 409.867C118.424 386.185 126.972 300.002 178.947 208.551C215.133 144.738 263.816 96.714 303.293 86.1825C317.763 82.2384 330.92 83.5512 341.451 89.4733C381.581 113.162 373.028 199.344 321.054 290.79C284.867 354.608 236.184 402.633 196.713 413.158C191.45 415.13 186.187 415.79 180.924 415.79ZM319.081 108.552C316.45 108.552 313.159 109.212 309.209 109.871C276.973 118.424 232.893 163.158 200.004 220.395C154.605 300.002 147.37 374.341 170.393 388.157C175.002 390.788 181.578 391.448 190.131 389.476C222.367 380.922 266.448 336.183 299.343 278.951C344.736 199.344 351.977 125 328.948 111.184C326.316 109.871 323.026 108.552 319.081 108.552Z" fill="#77CBD2"/>
<path id="Vector_15" d="M180.924 420.393C171.712 420.393 163.158 418.421 155.923 413.817C113.162 388.816 121.056 299.343 174.343 205.92C211.183 140.788 261.185 92.1047 301.315 81.5791C317.103 77.6349 331.579 78.9477 343.423 85.5291C386.185 110.524 378.291 200.004 325.004 293.421C288.158 358.552 238.162 407.236 198.026 417.762C192.103 419.74 186.841 420.393 180.924 420.393ZM319.081 88.8139C314.472 88.8139 309.209 89.4733 304.606 90.7919C266.448 100.658 219.083 148.029 183.556 210.529C133.553 298.03 124.341 383.554 161.845 405.923C171.052 411.186 183.556 412.499 196.713 409.214C234.871 399.342 282.236 351.977 317.763 289.477C367.765 201.976 377.631 116.447 339.473 94.736C332.898 90.7919 326.316 88.8139 319.081 88.8139ZM180.924 396.051C176.315 396.051 172.371 394.738 168.421 392.766C139.476 376.319 152.633 294.74 196.053 218.423C229.608 159.867 274.342 114.474 307.897 105.921C317.103 103.29 325.004 103.949 330.92 107.24C359.871 123.687 346.714 205.266 303.293 281.583C269.738 340.133 224.999 385.526 191.45 394.079C188.159 395.398 184.209 396.051 180.924 396.051ZM319.081 113.162C316.45 113.162 313.819 113.815 310.528 114.474C278.951 123.028 236.184 166.449 203.948 223.027C157.236 305.265 153.951 373.687 173.024 384.872C176.974 386.844 182.237 387.504 188.819 385.526C220.395 376.972 263.157 333.551 295.393 276.973C342.105 194.741 345.395 126.319 326.316 115.134C324.344 113.815 321.713 113.162 319.081 113.162Z" fill="#472B29"/>
<path id="Vector_16" d="M319.081 415.79C313.819 415.79 308.556 415.13 303.293 413.817C264.476 403.292 215.792 355.262 178.947 291.449C126.972 200.004 118.424 113.815 158.555 90.1326C169.08 84.2105 182.237 82.8977 196.713 86.8419C235.524 97.3674 284.214 145.398 321.054 209.21C373.028 300.662 381.581 386.844 341.451 410.527C334.87 413.817 326.976 415.79 319.081 415.79ZM180.924 108.552C176.974 108.552 173.684 109.212 171.052 111.184C147.37 125 155.264 200.004 200.657 278.951C233.552 336.183 276.973 380.922 309.869 389.476C317.763 391.448 324.344 391.448 329.607 388.157C353.29 374.341 345.395 299.343 300.002 220.395C267.107 163.158 223.686 118.424 190.791 109.871C186.841 109.212 184.209 108.552 180.924 108.552Z" fill="#77CBD2"/>
<path id="Vector_17" d="M319.081 420.393C313.819 420.393 307.897 419.74 301.974 417.762C261.844 407.236 211.842 357.893 175.002 293.421C121.709 200.004 113.815 110.524 156.583 85.5291C168.421 78.9477 182.897 76.9756 198.685 81.5791C238.815 92.1046 288.817 141.448 325.657 205.92C378.95 299.343 386.844 388.816 344.083 413.817C336.183 418.421 328.288 420.393 319.081 420.393ZM180.924 88.8139C173.684 88.8139 166.449 90.7919 160.527 94.0826C123.028 115.793 132.894 201.976 182.237 288.817C217.764 351.317 265.788 398.683 303.293 408.555C316.45 411.845 328.288 411.186 338.16 405.264C375.659 383.554 365.793 297.371 316.45 209.87C280.923 147.37 232.893 99.9988 195.394 90.1326C190.791 89.4732 185.528 88.8139 180.924 88.8139ZM319.081 396.051C315.791 396.051 312.5 395.398 308.556 394.738C275.001 385.526 230.262 340.133 196.713 282.236C153.292 205.92 140.135 125 169.08 107.893C175.002 104.608 182.897 103.949 192.103 106.58C225.658 115.793 270.398 161.186 303.947 219.083C347.367 295.393 360.53 376.319 331.579 393.42C327.635 394.738 323.685 396.051 319.081 396.051ZM180.924 113.162C177.634 113.162 175.002 113.815 173.024 115.134C154.605 126.319 157.236 194.741 203.948 276.973C236.184 333.551 278.951 376.972 310.528 385.526C317.103 387.504 323.026 386.844 326.316 384.872C344.736 373.687 342.105 305.265 295.393 223.027C263.157 166.449 221.055 123.028 189.472 114.474C186.187 113.815 183.556 113.162 180.924 113.162Z" fill="#472B29"/>
<path id="Vector_18" d="M286.186 250C286.186 251.183 286.127 252.366 286.009 253.55C285.898 254.727 285.721 255.899 285.491 257.058C285.256 258.224 284.973 259.372 284.626 260.502C284.285 261.638 283.884 262.751 283.431 263.846C282.978 264.941 282.472 266.012 281.912 267.06C281.353 268.102 280.747 269.12 280.087 270.103C279.428 271.086 278.722 272.04 277.974 272.958C277.22 273.871 276.426 274.748 275.59 275.59C274.748 276.426 273.871 277.22 272.958 277.974C272.04 278.722 271.086 279.428 270.103 280.087C269.12 280.747 268.102 281.353 267.06 281.912C266.012 282.472 264.941 282.978 263.846 283.431C262.751 283.884 261.638 284.285 260.502 284.626C259.372 284.973 258.224 285.256 257.058 285.491C255.899 285.721 254.727 285.898 253.55 286.009C252.366 286.127 251.183 286.186 250 286.186C248.817 286.186 247.634 286.127 246.456 286.009C245.273 285.898 244.101 285.721 242.942 285.491C241.782 285.256 240.634 284.973 239.498 284.626C238.362 284.285 237.249 283.884 236.154 283.431C235.059 282.978 233.988 282.472 232.946 281.912C231.898 281.353 230.886 280.747 229.897 280.087C228.914 279.428 227.96 278.722 227.047 277.974C226.129 277.22 225.252 276.426 224.416 275.59C223.574 274.748 222.78 273.871 222.032 272.958C221.278 272.04 220.572 271.086 219.913 270.103C219.259 269.12 218.647 268.102 218.088 267.06C217.528 266.012 217.022 264.941 216.569 263.846C216.116 262.751 215.721 261.638 215.374 260.502C215.032 259.372 214.744 258.224 214.514 257.058C214.279 255.899 214.108 254.727 213.991 253.55C213.873 252.366 213.814 251.183 213.814 250C213.814 248.817 213.873 247.634 213.991 246.456C214.108 245.273 214.279 244.101 214.514 242.942C214.744 241.782 215.032 240.634 215.374 239.498C215.721 238.362 216.116 237.249 216.569 236.154C217.022 235.059 217.528 233.988 218.088 232.946C218.647 231.898 219.259 230.886 219.913 229.897C220.572 228.914 221.278 227.96 222.032 227.047C222.78 226.129 223.574 225.252 224.416 224.416C225.252 223.574 226.129 222.78 227.047 222.032C227.96 221.278 228.914 220.572 229.897 219.913C230.886 219.259 231.898 218.647 232.946 218.088C233.988 217.528 235.059 217.022 236.154 216.569C237.249 216.116 238.362 215.721 239.498 215.374C240.634 215.032 241.782 214.744 242.942 214.514C244.101 214.279 245.273 214.108 246.456 213.991C247.634 213.873 248.817 213.814 250 213.814C251.183 213.814 252.366 213.873 253.55 213.991C254.727 214.108 255.899 214.279 257.058 214.514C258.224 214.744 259.372 215.032 260.502 215.374C261.638 215.721 262.751 216.116 263.846 216.569C264.941 217.022 266.012 217.528 267.06 218.088C268.102 218.647 269.12 219.259 270.103 219.913C271.086 220.572 272.04 221.278 272.958 222.032C273.871 222.78 274.748 223.574 275.59 224.416C276.426 225.252 277.22 226.129 277.974 227.047C278.722 227.96 279.428 228.914 280.087 229.897C280.747 230.886 281.353 231.898 281.912 232.946C282.472 233.988 282.978 235.059 283.431 236.154C283.884 237.249 284.285 238.362 284.626 239.498C284.973 240.634 285.256 241.782 285.491 242.942C285.721 244.101 285.898 245.273 286.009 246.456C286.127 247.634 286.186 248.817 286.186 250Z" fill="#77CBD2"/>
<path id="Vector_19" d="M250 289.477C228.29 289.477 210.529 271.71 210.529 250C210.529 228.29 228.29 210.529 250 210.529C271.71 210.529 289.477 228.29 289.477 250C289.477 271.71 271.71 289.477 250 289.477ZM250 217.105C231.58 217.105 217.105 231.58 217.105 250C217.105 268.42 231.58 282.895 250 282.895C268.42 282.895 282.895 268.42 282.895 250C282.895 231.58 268.42 217.105 250 217.105Z" fill="#472B29"/>
<path id="Vector_20" d="M250 275.001C249.341 275.001 248.028 274.342 248.028 273.029C248.028 271.71 248.687 271.051 250 271.051C252.631 271.051 254.603 270.398 257.241 269.738C260.526 268.42 263.157 266.448 265.788 264.476C266.448 263.816 267.766 263.816 268.42 264.476C269.079 265.135 269.079 266.448 268.42 267.107C265.788 269.738 262.504 272.37 258.553 273.683C255.922 274.342 252.631 275.001 250 275.001Z" fill="#472B29"/>
<path id="Vector_21" d="M270.398 261.844H269.738C269.079 261.185 268.42 260.526 269.079 259.872C270.398 257.241 271.051 253.95 271.051 250.659C271.051 242.106 266.448 234.871 259.213 231.58C258.553 230.921 257.894 230.262 258.553 229.608C259.213 228.949 259.872 228.29 260.526 228.949C269.079 232.893 274.342 241.447 274.342 251.319C274.342 255.263 273.683 258.554 271.71 262.504C271.71 261.185 271.051 261.844 270.398 261.844Z" fill="#472B29"/>
<path id="Vector_22" d="M237.502 232.24C236.843 232.24 236.184 232.24 236.184 231.58C235.524 230.921 236.184 229.608 236.843 229.608C240.793 226.977 245.397 225.658 250 225.658C250.659 225.658 251.972 226.317 251.972 227.63C251.972 228.949 251.319 229.608 250 229.608C246.056 229.608 242.106 230.921 238.162 232.893C238.162 232.24 238.162 232.24 237.502 232.24Z" fill="#472B29"/>
<path id="Vector_23" d="M273.029 163.158C272.37 163.158 272.37 163.158 271.71 162.499C247.369 132.241 224.345 112.502 203.288 103.949C202.635 103.29 201.976 102.63 202.635 101.977C203.288 101.317 203.948 100.658 204.607 101.317C226.317 110.524 249.341 130.922 274.342 161.186C275.001 161.845 275.001 163.158 274.342 163.817C273.683 162.499 273.683 163.158 273.029 163.158Z" fill="#472B29"/>
<path id="Vector_24" d="M161.186 103.949C160.527 103.949 160.527 103.949 159.867 103.29C159.214 102.63 159.214 101.317 159.867 100.658C161.845 99.3454 172.371 92.1047 191.45 96.0547C192.103 96.0547 192.763 97.3675 192.763 98.0268C192.763 98.6861 191.45 99.3454 190.791 99.3454C173.024 95.3954 163.817 101.977 162.499 103.29C161.845 103.29 161.845 103.949 161.186 103.949Z" fill="#472B29"/>
<path id="Vector_25" d="M403.292 286.186C402.633 286.186 402.633 286.186 401.973 285.527C401.32 284.867 401.32 283.555 401.973 282.895C417.108 270.398 423.03 255.922 419.74 239.474C419.74 238.815 420.393 237.502 421.052 237.502C421.712 237.502 423.03 238.162 423.03 238.815C426.974 255.922 420.393 272.37 403.951 285.527C403.951 286.186 403.292 286.186 403.292 286.186Z" fill="#472B29"/>
<path id="Vector_26" d="M375 301.974C374.341 301.974 373.687 301.315 373.687 300.662C373.687 300.002 373.687 298.684 375 298.684C375 298.684 384.213 295.393 394.079 289.477C394.738 288.817 396.051 289.477 396.051 290.13C396.71 290.79 396.051 292.108 395.398 292.108C384.872 298.684 375.659 301.315 375 301.974Z" fill="#472B29"/>
<path id="Vector_27" d="M178.293 405.264C160.527 404.605 149.342 391.448 145.398 367.765C145.398 367.106 146.051 365.793 146.71 365.793C147.37 365.793 148.683 366.446 148.683 367.106C152.633 389.476 162.499 401.314 178.293 401.973C178.946 401.973 179.606 402.633 179.606 403.951C180.265 404.605 179.606 405.264 178.293 405.264Z" fill="#472B29"/>
<path id="Vector_28" d="M145.398 353.29C144.738 353.29 144.079 352.63 143.42 351.977C142.766 336.842 144.738 323.685 145.398 321.713C145.398 321.053 146.71 320.394 147.37 320.394C148.029 320.394 148.683 321.713 148.683 322.372C148.683 323.026 146.051 336.183 146.71 351.317C147.37 352.63 146.71 353.29 145.398 353.29Z" fill="#472B29"/>
</g>
</svg>
